<?xml version="1.0" encoding="utf-8"?>
<!-- Generator: Adobe Illustrator 23.0.1, SVG Export Plug-In . SVG Version: 6.00 Build 0)  -->
<svg version="1.1" id="Layer_1" xmlns="http://www.w3.org/2000/svg" xmlns:xlink="http://www.w3.org/1999/xlink" x="0px" y="0px"
	 viewBox="0 0 1400 400" style="enable-background:new 0 0 1400 400;" xml:space="preserve">
<style type="text/css">
	.st0{fill:#4C76BA;}
</style>
<g>
	<g>
		<g>
			<rect x="87" y="50" class="st0" width="88" height="300"/>
		</g>
		<g>
			<polygon class="st0" points="317,50 238.03,50 175,200 253.97,200 			"/>
		</g>
		<g>
			<polygon class="st0" points="301,350 222.03,350 175,200 253.97,200 			"/>
		</g>
	</g>
	<path class="st0" d="M826,50v71H596V75c0-13.81,11.19-25,25-25H826z"/>
	<path class="st0" d="M865,279v71H621c-13.81,0-25-11.19-25-25v-46H865z"/>
	<rect x="740" y="141" transform="matrix(3.307583e-11 -1 1 3.307583e-11 562 967)" class="st0" width="49" height="123"/>
	
		<rect x="988.39" y="23.36" transform="matrix(-1.146489e-10 1 -1 -1.146489e-10 1109.3552 -938.3875)" class="st0" width="70.97" height="124.26"/>
	<path class="st0" d="M1033.19,164.52H984.7c-10.07,0-18.23-9.75-18.23-21.77c0-12.03,8.16-21.77,18.23-21.77h48.49
		C1024.99,80.25,994.3,50,957.69,50c-42.89,0-77.66,41.52-77.66,92.74s34.77,92.74,77.66,92.74
		C994.3,235.48,1024.99,205.23,1033.19,164.52z"/>
	
		<rect x="882.64" y="252.39" transform="matrix(1.146488e-10 -1 1 1.146488e-10 603.6125 1232.6448)" class="st0" width="70.97" height="124.26"/>
	<path class="st0" d="M908.81,235.48h48.49c10.07,0,18.23,9.75,18.23,21.77c0,12.03-8.16,21.77-18.23,21.77h-48.49
		c8.2,40.71,38.89,70.97,75.5,70.97c42.89,0,77.66-41.52,77.66-92.74s-34.77-92.74-77.66-92.74
		C947.7,164.52,917.01,194.77,908.81,235.48z"/>
	<g>
		<rect x="336" y="50" class="st0" width="88" height="180.98"/>
		<rect x="478" y="50" class="st0" width="88" height="180.98"/>
		<path class="st0" d="M478,126.91v70.63V252h-0.3c-1.93,13.01-13.15,23-26.7,23s-24.77-9.99-26.7-23H424v-54.46v-70.63
			c-50.48,11.95-88,56.65-88,109.97C336,299.36,387.49,350,451,350s115-50.64,115-113.11C566,183.56,528.48,138.86,478,126.91z"/>
	</g>
	<g>
		<rect x="1175" y="57" class="st0" width="88" height="293"/>
	</g>
	<rect x="1186" y="-52" transform="matrix(5.113693e-11 -1 1 5.113693e-11 1136 1307)" class="st0" width="71" height="275"/>
	<rect x="596" y="104" class="st0" width="82" height="200"/>
</g>
</svg>
