<?xml version="1.0" encoding="utf-8"?>
<!-- Generator: Adobe Illustrator 23.0.1, SVG Export Plug-In . SVG Version: 6.00 Build 0)  -->
<svg version="1.1" id="Layer_1" xmlns="http://www.w3.org/2000/svg" xmlns:xlink="http://www.w3.org/1999/xlink" x="0px" y="0px"
	 viewBox="0 0 400 400" style="enable-background:new 0 0 400 400;" xml:space="preserve">
<style type="text/css">
	.st0{fill:none;}
	.st1{font-family:'MonotypeCorsiva';}
	.st2{font-size:350px;}
</style>
<g>
	<circle class="st0" cx="203" cy="200" r="170"/>
	<path d="M203,47c40.9,0,79.3,15.9,108.2,44.8S356,159.1,356,200s-15.9,79.3-44.8,108.2S243.9,353,203,353s-79.3-15.9-108.2-44.8
		S50,240.9,50,200s15.9-79.3,44.8-108.2S162.1,47,203,47 M203,13C99.7,13,16,96.7,16,200s83.7,187,187,187s187-83.7,187-187
		S306.3,13,203,13L203,13z"/>
</g>
<text transform="matrix(1 0 0 1 128.1538 302.1543)" class="st1 st2">i</text>
</svg>
