<?xml version="1.0" encoding="utf-8"?>
<!-- Generator: Adobe Illustrator 23.0.1, SVG Export Plug-In . SVG Version: 6.00 Build 0)  -->
<svg version="1.1" id="Layer_1" xmlns="http://www.w3.org/2000/svg" xmlns:xlink="http://www.w3.org/1999/xlink" x="0px" y="0px"
	 viewBox="0 0 200 200" style="enable-background:new 0 0 200 200;" xml:space="preserve">
<g>
	<g>
		<path d="M52.17,120H9V67.73C9,46.89,25.89,30,46.73,30h5.44V120z"/>
	</g>
	<g>
		<path d="M9,69V52.38C9,40.02,19.02,30,31.38,30h47.35v39H9z"/>
	</g>
	<polygon points="78.74,2 78.74,97 164.33,49.5 	"/>
</g>
<g>
	<g>
		<path d="M152.83,80H196v52.27c0,20.84-16.89,37.73-37.73,37.73h-5.44V80z"/>
	</g>
	<g>
		<path d="M196,131v16.62c0,12.36-10.02,22.38-22.38,22.38h-47.35v-39H196z"/>
	</g>
	<polygon points="126.26,198 126.26,103 40.67,150.5 	"/>
</g>
</svg>
