<?xml version="1.0" encoding="utf-8"?>
<!-- Generator: Adobe Illustrator 23.0.1, SVG Export Plug-In . SVG Version: 6.00 Build 0)  -->
<svg version="1.1" id="Layer_1" xmlns="http://www.w3.org/2000/svg" xmlns:xlink="http://www.w3.org/1999/xlink" x="0px" y="0px"
	 viewBox="0 0 230 300" style="enable-background:new 0 0 230 300;" xml:space="preserve">
<style type="text/css">
	.st0{fill:#F2F2F2;}
	.st1{fill:#E6E6E6;}
	.st2{fill:#A67C52;}
</style>
<g>
	<rect x="0" class="st0" width="230" height="300"/>
	<polygon class="st1" points="115,281.4 0,170.23 0,293 230,293 230,170.23 	"/>
	<g>
		<polygon class="st2" points="40.5,164.5 29,176 115,262 201,176 189.5,164.5 115,239 		"/>
		<polygon class="st2" points="186.5,138.5 201,124 115,38 29,124 43.5,138.5 115,67 		"/>
		
			<rect x="31.75" y="143.37" transform="matrix(0.7071 -0.7071 0.7071 0.7071 -94.8252 74.0718)" class="st2" width="20.51" height="16.26"/>
		
			<rect x="179.87" y="141.25" transform="matrix(0.7071 -0.7071 0.7071 0.7071 -52.0628 177.3094)" class="st2" width="16.26" height="20.51"/>
		
			<rect x="72.57" y="107.57" transform="matrix(0.7071 -0.7071 0.7071 0.7071 -72.3833 125.2513)" class="st2" width="84.85" height="84.85"/>
	</g>
	<polygon class="st1" points="0,134.82 115,23.65 230,134.82 230,7 0,7 	"/>
</g>
</svg>
